<svg width="12" height="13" viewBox="0 0 12 13" fill="none" xmlns="http://www.w3.org/2000/svg">
<path d="M6.25568 9.81818V9.20455C6.25568 8.75379 6.35038 8.33902 6.53977 7.96023C6.73295 7.58144 7.01326 7.27652 7.38068 7.04545C7.74811 6.81439 8.19318 6.69886 8.71591 6.69886C9.25379 6.69886 9.70455 6.81439 10.0682 7.04545C10.4318 7.27273 10.7064 7.57576 10.892 7.95455C11.0814 8.33333 11.1761 8.75 11.1761 9.20455V9.81818C11.1761 10.2689 11.0814 10.6837 10.892 11.0625C10.7027 11.4413 10.4242 11.7462 10.0568 11.9773C9.69318 12.2083 9.24621 12.3239 8.71591 12.3239C8.18561 12.3239 7.73674 12.2083 7.36932 11.9773C7.00189 11.7462 6.72348 11.4413 6.53409 11.0625C6.34848 10.6837 6.25568 10.2689 6.25568 9.81818ZM7.73864 9.20455V9.81818C7.73864 10.1174 7.81061 10.392 7.95455 10.642C8.09849 10.892 8.35227 11.017 8.71591 11.017C9.08333 11.017 9.33523 10.8939 9.47159 10.6477C9.61174 10.3977 9.68182 10.1212 9.68182 9.81818V9.20455C9.68182 8.90152 9.61553 8.625 9.48295 8.375C9.35038 8.12121 9.0947 7.99432 8.71591 7.99432C8.35985 7.99432 8.10795 8.12121 7.96023 8.375C7.8125 8.625 7.73864 8.90152 7.73864 9.20455ZM0.340909 3.15909V2.54545C0.340909 2.09091 0.4375 1.67424 0.630682 1.29545C0.823864 0.916666 1.10417 0.613636 1.47159 0.386363C1.83902 0.155302 2.28409 0.039772 2.80682 0.039772C3.34091 0.039772 3.78977 0.155302 4.15341 0.386363C4.52083 0.613636 4.79735 0.916666 4.98295 1.29545C5.16856 1.67424 5.26136 2.09091 5.26136 2.54545V3.15909C5.26136 3.61364 5.16667 4.0303 4.97727 4.40909C4.79167 4.78409 4.51515 5.08523 4.14773 5.3125C3.7803 5.53977 3.33333 5.65341 2.80682 5.65341C2.27273 5.65341 1.82197 5.53977 1.45455 5.3125C1.09091 5.08523 0.814394 4.7822 0.625 4.40341C0.435606 4.02462 0.340909 3.60985 0.340909 3.15909ZM1.83523 2.54545V3.15909C1.83523 3.46212 1.9053 3.73864 2.04545 3.98864C2.18939 4.23485 2.44318 4.35795 2.80682 4.35795C3.17045 4.35795 3.42045 4.23485 3.55682 3.98864C3.69697 3.73864 3.76705 3.46212 3.76705 3.15909V2.54545C3.76705 2.24242 3.70076 1.96591 3.56818 1.71591C3.43561 1.46212 3.18182 1.33523 2.80682 1.33523C2.44697 1.33523 2.19508 1.46212 2.05114 1.71591C1.9072 1.9697 1.83523 2.24621 1.83523 2.54545ZM0.988636 12L8.98864 0.363636H10.4091L2.40909 12H0.988636Z" fill="white"/>
</svg>
